<svg xmlns="http://www.w3.org/2000/svg" xmlns:xlink="http://www.w3.org/1999/xlink" width="250" zoomAndPan="magnify" viewBox="0 0 187.5 187.499992" height="250" preserveAspectRatio="xMidYMid meet" version="1.0"><defs><clipPath id="7db5838ce8"><path d="M 9 20 L 187 20 L 187 168 L 9 168 Z M 9 20 " clip-rule="nonzero"/></clipPath></defs><g clip-path="url(#7db5838ce8)"><path fill="#191571" d="M 165.242188 32.398438 C 164.261719 32.683594 163.308594 33.039062 162.382812 33.460938 C 161.453125 33.882812 160.5625 34.371094 159.703125 34.921875 C 158.847656 35.472656 158.035156 36.082031 157.265625 36.753906 C 156.496094 37.421875 155.78125 38.144531 155.117188 38.914062 C 154.453125 39.6875 153.847656 40.503906 153.300781 41.363281 C 152.757812 42.226562 152.273438 43.121094 151.859375 44.050781 C 151.441406 44.980469 151.09375 45.933594 150.816406 46.914062 C 150.539062 47.894531 150.332031 48.886719 150.199219 49.898438 C 149.824219 52.175781 147.4375 54.128906 145.511719 56.890625 C 121.988281 19.828125 76.484375 11.238281 43.261719 32.097656 C 41.347656 33.316406 39.496094 34.617188 37.703125 36.003906 C 35.910156 37.394531 34.183594 38.859375 32.527344 40.40625 C 30.871094 41.953125 29.285156 43.574219 27.777344 45.265625 C 26.269531 46.960938 24.84375 48.71875 23.5 50.542969 C 22.152344 52.367188 20.894531 54.25 19.722656 56.1875 C 18.550781 58.128906 17.46875 60.117188 16.480469 62.15625 C 15.492188 64.199219 14.601562 66.277344 13.804688 68.398438 C 13.007812 70.519531 12.3125 72.675781 11.714844 74.859375 C 11.117188 77.046875 10.621094 79.253906 10.230469 81.488281 C 9.835938 83.71875 9.546875 85.960938 9.359375 88.222656 C 9.171875 90.480469 9.09375 92.742188 9.113281 95.007812 C 9.136719 97.273438 9.265625 99.53125 9.496094 101.785156 C 9.726562 104.039062 10.0625 106.277344 10.5 108.5 C 10.9375 110.726562 11.476562 112.921875 12.117188 115.097656 C 12.757812 117.269531 13.496094 119.410156 14.335938 121.515625 C 15.175781 123.621094 16.109375 125.683594 17.136719 127.703125 C 18.167969 129.730469 19.292969 131.707031 20.511719 133.628906 C 21.730469 135.554688 23.035156 137.417969 24.429688 139.21875 C 25.820312 141.019531 27.296875 142.75 28.851562 144.410156 C 30.410156 146.074219 32.039062 147.660156 33.746094 149.167969 C 35.449219 150.679688 37.222656 152.105469 39.0625 153.449219 C 40.902344 154.789062 42.800781 156.042969 44.757812 157.207031 C 46.71875 158.371094 48.726562 159.441406 50.785156 160.417969 C 52.84375 161.394531 54.941406 162.273438 57.082031 163.050781 C 59.222656 163.828125 61.398438 164.507812 63.601562 165.082031 C 65.804688 165.65625 68.035156 166.125 70.28125 166.492188 C 72.53125 166.855469 74.792969 167.117188 77.066406 167.269531 C 79.339844 167.421875 81.613281 167.46875 83.894531 167.410156 C 86.171875 167.347656 88.441406 167.179688 90.703125 166.90625 C 92.964844 166.632812 95.207031 166.253906 97.433594 165.769531 C 99.660156 165.285156 101.859375 164.699219 104.03125 164.007812 C 106.203125 163.316406 108.335938 162.523438 110.433594 161.632812 C 111.566406 161.152344 112.683594 160.640625 113.792969 160.101562 C 114.898438 159.5625 115.988281 158.996094 117.070312 158.402344 C 118.148438 157.808594 119.210938 157.1875 120.257812 156.542969 C 121.304688 155.894531 122.335938 155.222656 123.347656 154.527344 C 124.363281 153.828125 125.359375 153.105469 126.335938 152.359375 C 127.3125 151.609375 128.273438 150.839844 129.210938 150.042969 C 130.152344 149.25 131.070312 148.433594 131.96875 147.589844 C 132.867188 146.75 133.742188 145.886719 134.597656 145.003906 C 135.453125 144.117188 136.289062 143.214844 137.097656 142.289062 C 137.90625 141.363281 138.695312 140.417969 139.457031 139.449219 C 140.21875 138.484375 140.957031 137.503906 141.671875 136.5 C 142.386719 135.5 143.074219 134.480469 143.738281 133.445312 C 144.402344 132.40625 145.039062 131.355469 145.648438 130.289062 C 146.257812 129.21875 146.84375 128.136719 147.398438 127.039062 C 147.953125 125.941406 148.484375 124.832031 148.984375 123.710938 C 149.484375 122.585938 149.957031 121.453125 150.402344 120.304688 C 150.847656 119.15625 151.261719 118 151.648438 116.832031 C 152.035156 115.664062 152.394531 114.488281 152.722656 113.304688 C 153.050781 112.117188 153.347656 110.925781 153.617188 109.726562 C 153.882812 108.527344 154.121094 107.320312 154.332031 106.109375 C 154.539062 104.894531 154.714844 103.679688 154.863281 102.457031 C 155.011719 101.238281 155.128906 100.015625 155.214844 98.785156 C 155.300781 97.558594 155.355469 96.332031 155.382812 95.101562 C 155.40625 93.875 155.402344 92.644531 155.363281 91.414062 C 155.328125 90.1875 155.261719 88.957031 155.164062 87.730469 C 155.066406 86.507812 154.9375 85.285156 154.78125 84.0625 C 154.621094 82.84375 154.433594 81.628906 154.210938 80.421875 C 153.992188 79.210938 153.746094 78.007812 153.464844 76.808594 C 153.183594 75.609375 152.875 74.421875 152.539062 73.238281 C 152.199219 72.054688 151.832031 70.882812 151.433594 69.71875 C 151.035156 68.554688 150.609375 67.402344 150.15625 66.257812 C 149.699219 65.117188 149.21875 63.984375 148.707031 62.867188 C 149.21875 62.363281 149.792969 61.945312 150.429688 61.609375 C 151.070312 61.277344 151.742188 61.046875 152.449219 60.914062 C 153.15625 60.78125 153.867188 60.753906 154.582031 60.835938 C 155.296875 60.914062 155.984375 61.097656 156.648438 61.382812 C 159.625 62.527344 162.675781 63.421875 165.804688 64.0625 C 167.203125 64.390625 168.5625 64.273438 169.882812 63.710938 C 174.609375 61.320312 179.316406 58.828125 183.800781 56.015625 C 185.375 55.027344 187.464844 52.777344 187.21875 51.507812 C 186.925781 49.976562 184.578125 48.46875 182.792969 47.679688 C 179.894531 46.574219 176.941406 45.652344 173.929688 44.910156 C 174.980469 40.542969 176.09375 36.847656 176.714844 33.074219 C 177.308594 29.492188 174.9375 27.757812 171.628906 29.171875 C 169.4375 30.109375 167.464844 31.59375 165.242188 32.398438 Z M 120.1875 68.4375 C 119.234375 67.011719 118.203125 65.640625 117.09375 64.328125 C 115.984375 63.019531 114.804688 61.777344 113.550781 60.601562 C 112.300781 59.421875 110.984375 58.324219 109.605469 57.296875 C 108.226562 56.273438 106.792969 55.328125 105.308594 54.46875 C 103.820312 53.605469 102.289062 52.832031 100.714844 52.144531 C 99.140625 51.457031 97.53125 50.863281 95.886719 50.359375 C 94.242188 49.859375 92.574219 49.449219 90.886719 49.136719 C 89.195312 48.828125 87.492188 48.613281 85.777344 48.492188 C 83.027344 48.242188 80.28125 48.25 77.53125 48.515625 C 74.785156 48.777344 72.085938 49.292969 69.433594 50.0625 C 66.78125 50.832031 64.226562 51.839844 61.761719 53.089844 C 59.300781 54.335938 56.976562 55.800781 54.789062 57.484375 C 53.695312 58.304688 52.636719 59.175781 51.617188 60.089844 C 50.601562 61.007812 49.625 61.96875 48.695312 62.96875 C 47.761719 63.972656 46.878906 65.015625 46.039062 66.101562 C 45.203125 67.183594 44.414062 68.300781 43.675781 69.453125 C 42.9375 70.605469 42.253906 71.792969 41.625 73.003906 C 40.992188 74.21875 40.417969 75.460938 39.898438 76.726562 C 39.378906 77.992188 38.914062 79.28125 38.511719 80.589844 C 38.105469 81.894531 37.761719 83.21875 37.476562 84.558594 C 37.191406 85.894531 36.964844 87.246094 36.800781 88.601562 C 36.636719 89.960938 36.535156 91.324219 36.492188 92.691406 C 36.453125 94.0625 36.472656 95.429688 36.554688 96.792969 C 36.632812 98.160156 36.777344 99.519531 36.980469 100.875 C 37.183594 102.226562 37.445312 103.570312 37.769531 104.898438 C 38.09375 106.226562 38.476562 107.539062 38.917969 108.835938 C 39.359375 110.132812 39.859375 111.40625 40.414062 112.65625 C 40.972656 113.90625 41.582031 115.128906 42.25 116.324219 C 42.914062 117.523438 43.632812 118.6875 44.402344 119.816406 C 45.175781 120.949219 45.992188 122.042969 46.863281 123.101562 C 47.730469 124.160156 48.644531 125.175781 49.605469 126.152344 C 50.566406 127.128906 51.570312 128.0625 52.613281 128.949219 C 53.65625 129.832031 54.738281 130.671875 55.859375 131.460938 C 56.976562 132.25 58.128906 132.988281 59.316406 133.675781 C 60.5 134.359375 61.714844 134.992188 62.957031 135.570312 C 64.199219 136.148438 65.464844 136.667969 66.753906 137.132812 C 68.042969 137.597656 69.351562 138 70.675781 138.347656 C 72 138.695312 73.339844 138.980469 74.691406 139.207031 C 76.042969 139.4375 77.398438 139.601562 78.765625 139.707031 C 80.132812 139.8125 81.5 139.855469 82.871094 139.839844 C 84.242188 139.820312 85.605469 139.742188 86.96875 139.601562 C 88.332031 139.460938 89.6875 139.261719 91.03125 139 C 92.378906 138.738281 93.707031 138.417969 95.023438 138.035156 C 96.339844 137.65625 97.636719 137.21875 98.914062 136.722656 C 120.066406 128.230469 134.679688 103.792969 124.683594 76.417969 L 141.707031 67.167969 C 154.742188 92.78125 147.347656 131.21875 116.347656 150.058594 C 115.425781 150.632812 114.488281 151.179688 113.539062 151.707031 C 112.589844 152.234375 111.628906 152.738281 110.652344 153.214844 C 109.679688 153.691406 108.695312 154.148438 107.695312 154.574219 C 106.699219 155.003906 105.691406 155.410156 104.675781 155.789062 C 103.65625 156.167969 102.632812 156.519531 101.597656 156.847656 C 100.5625 157.175781 99.519531 157.476562 98.46875 157.75 C 97.417969 158.027344 96.363281 158.277344 95.300781 158.5 C 94.238281 158.71875 93.167969 158.917969 92.097656 159.085938 C 91.023438 159.253906 89.949219 159.398438 88.867188 159.511719 C 87.789062 159.628906 86.707031 159.714844 85.625 159.777344 C 84.539062 159.839844 83.453125 159.875 82.367188 159.878906 C 81.28125 159.886719 80.199219 159.867188 79.113281 159.820312 C 78.027344 159.773438 76.945312 159.699219 75.863281 159.597656 C 74.785156 159.496094 73.707031 159.367188 72.632812 159.214844 C 71.554688 159.058594 70.488281 158.875 69.421875 158.667969 C 68.355469 158.460938 67.296875 158.222656 66.242188 157.960938 C 65.1875 157.699219 64.140625 157.414062 63.101562 157.097656 C 62.0625 156.785156 61.03125 156.445312 60.011719 156.082031 C 58.988281 155.714844 57.976562 155.324219 56.972656 154.910156 C 55.96875 154.492188 54.980469 154.050781 53.996094 153.585938 C 53.015625 153.121094 52.050781 152.632812 51.09375 152.117188 C 50.136719 151.601562 49.195312 151.066406 48.265625 150.503906 C 47.335938 149.945312 46.421875 149.359375 45.519531 148.753906 C 44.621094 148.144531 43.738281 147.515625 42.867188 146.867188 C 42 146.214844 41.148438 145.542969 40.3125 144.851562 C 39.480469 144.15625 38.664062 143.441406 37.863281 142.707031 C 37.066406 141.972656 36.285156 141.21875 35.523438 140.445312 C 34.761719 139.671875 34.019531 138.882812 33.300781 138.070312 C 32.578125 137.261719 31.878906 136.433594 31.199219 135.585938 C 30.515625 134.742188 29.859375 133.878906 29.222656 133.003906 C 28.585938 132.125 27.96875 131.230469 27.378906 130.320312 C 26.785156 129.414062 26.21875 128.488281 25.671875 127.550781 C 6.972656 94.824219 17.976562 54.359375 50.679688 36.585938 C 52.484375 35.578125 54.335938 34.660156 56.226562 33.828125 C 58.121094 32.996094 60.050781 32.257812 62.015625 31.609375 C 63.976562 30.960938 65.96875 30.410156 67.984375 29.953125 C 70.003906 29.496094 72.035156 29.136719 74.089844 28.875 C 76.140625 28.609375 78.199219 28.445312 80.265625 28.378906 C 82.332031 28.3125 84.398438 28.347656 86.460938 28.476562 C 88.527344 28.609375 90.578125 28.835938 92.621094 29.164062 C 94.664062 29.492188 96.6875 29.914062 98.6875 30.433594 C 100.691406 30.953125 102.660156 31.570312 104.605469 32.277344 C 106.546875 32.984375 108.453125 33.785156 110.316406 34.675781 C 112.183594 35.566406 114.003906 36.542969 115.777344 37.605469 C 117.550781 38.671875 119.269531 39.816406 120.929688 41.042969 C 122.59375 42.273438 124.195312 43.578125 125.734375 44.957031 C 127.269531 46.339844 128.738281 47.789062 130.140625 49.3125 C 131.539062 50.832031 132.863281 52.417969 134.109375 54.0625 C 135.359375 55.710938 136.523438 57.414062 137.609375 59.171875 Z M 73.46875 76.210938 C 72.605469 76.601562 71.773438 77.054688 70.976562 77.570312 C 70.175781 78.085938 69.421875 78.660156 68.710938 79.289062 C 67.996094 79.914062 67.335938 80.59375 66.726562 81.320312 C 66.113281 82.046875 65.558594 82.816406 65.0625 83.625 C 64.566406 84.433594 64.132812 85.273438 63.761719 86.148438 C 63.390625 87.023438 63.089844 87.917969 62.851562 88.839844 C 62.613281 89.757812 62.449219 90.6875 62.351562 91.632812 C 62.253906 92.578125 62.226562 93.523438 62.269531 94.472656 C 62.273438 95.140625 62.316406 95.808594 62.386719 96.476562 C 62.460938 97.140625 62.570312 97.804688 62.710938 98.457031 C 62.851562 99.113281 63.023438 99.761719 63.230469 100.398438 C 63.4375 101.035156 63.675781 101.664062 63.945312 102.277344 C 64.214844 102.890625 64.511719 103.488281 64.84375 104.074219 C 65.175781 104.65625 65.53125 105.222656 65.921875 105.769531 C 66.308594 106.316406 66.722656 106.84375 67.164062 107.347656 C 67.605469 107.851562 68.070312 108.335938 68.558594 108.792969 C 69.050781 109.25 69.5625 109.683594 70.09375 110.089844 C 70.628906 110.496094 71.179688 110.875 71.753906 111.226562 C 72.324219 111.578125 72.914062 111.898438 73.519531 112.1875 C 74.121094 112.480469 74.742188 112.738281 75.371094 112.96875 C 76.003906 113.195312 76.644531 113.394531 77.292969 113.554688 C 77.945312 113.71875 78.601562 113.851562 79.265625 113.949219 C 79.929688 114.046875 80.597656 114.109375 81.269531 114.140625 C 81.9375 114.167969 82.609375 114.164062 83.277344 114.128906 C 83.949219 114.089844 84.613281 114.019531 85.277344 113.914062 C 85.941406 113.808594 86.597656 113.667969 87.246094 113.496094 C 87.894531 113.324219 88.53125 113.121094 89.160156 112.886719 C 89.789062 112.648438 90.402344 112.382812 91.003906 112.082031 C 91.605469 111.785156 92.191406 111.457031 92.757812 111.101562 C 93.324219 110.742188 93.875 110.359375 94.402344 109.945312 C 94.929688 109.53125 95.4375 109.09375 95.921875 108.628906 C 96.40625 108.164062 96.867188 107.679688 97.300781 107.167969 C 97.734375 106.65625 98.144531 106.125 98.523438 105.574219 C 98.90625 105.023438 99.257812 104.453125 99.582031 103.863281 C 99.902344 103.277344 100.195312 102.675781 100.460938 102.058594 C 100.722656 101.441406 100.953125 100.8125 101.148438 100.171875 C 101.347656 99.53125 101.515625 98.882812 101.648438 98.226562 C 101.78125 97.570312 101.878906 96.90625 101.945312 96.238281 C 102.011719 95.574219 102.042969 94.902344 102.039062 94.234375 C 102.039062 93.5625 102 92.894531 101.933594 92.226562 C 101.84375 91.90625 101.785156 91.582031 101.761719 91.25 C 101.734375 90.917969 101.742188 90.589844 101.78125 90.257812 C 101.820312 89.929688 101.886719 89.605469 101.988281 89.289062 C 102.089844 88.972656 102.21875 88.667969 102.378906 88.375 C 102.539062 88.085938 102.722656 87.8125 102.933594 87.554688 C 103.148438 87.296875 103.378906 87.066406 103.636719 86.855469 C 103.894531 86.644531 104.167969 86.457031 104.460938 86.300781 C 104.753906 86.140625 105.058594 86.011719 105.375 85.914062 C 109.265625 83.925781 112.9375 81.535156 116.957031 79.164062 C 125.445312 96.472656 116.980469 119.101562 99.503906 128.078125 C 98.40625 128.648438 97.285156 129.160156 96.140625 129.621094 C 94.996094 130.082031 93.828125 130.484375 92.644531 130.828125 C 91.460938 131.171875 90.261719 131.460938 89.046875 131.6875 C 87.835938 131.917969 86.613281 132.085938 85.382812 132.195312 C 84.152344 132.304688 82.921875 132.355469 81.6875 132.34375 C 80.453125 132.335938 79.222656 132.261719 77.996094 132.132812 C 76.765625 132.003906 75.550781 131.8125 74.339844 131.5625 C 73.132812 131.3125 71.9375 131.007812 70.757812 130.640625 C 69.578125 130.273438 68.421875 129.851562 67.285156 129.375 C 66.144531 128.894531 65.035156 128.363281 63.949219 127.773438 C 62.863281 127.1875 61.808594 126.550781 60.785156 125.859375 C 59.761719 125.167969 58.777344 124.433594 57.824219 123.644531 C 56.875 122.859375 55.964844 122.027344 55.09375 121.15625 C 54.222656 120.28125 53.398438 119.363281 52.617188 118.410156 C 51.839844 117.453125 51.105469 116.460938 50.421875 115.4375 C 49.738281 114.410156 49.105469 113.351562 48.527344 112.265625 C 47.941406 111.167969 47.414062 110.046875 46.9375 108.902344 C 46.464844 107.753906 46.046875 106.585938 45.683594 105.398438 C 45.320312 104.210938 45.019531 103.011719 44.773438 101.792969 C 44.527344 100.578125 44.34375 99.351562 44.21875 98.117188 C 44.089844 96.882812 44.027344 95.644531 44.019531 94.402344 C 44.015625 93.164062 44.070312 91.925781 44.183594 90.6875 C 44.296875 89.453125 44.472656 88.226562 44.707031 87.007812 C 44.941406 85.789062 45.230469 84.585938 45.582031 83.394531 C 45.933594 82.203125 46.339844 81.03125 46.804688 79.882812 C 47.269531 78.730469 47.789062 77.605469 48.363281 76.503906 C 48.9375 75.402344 49.5625 74.332031 50.238281 73.292969 C 50.917969 72.253906 51.644531 71.246094 52.417969 70.277344 C 53.195312 69.308594 54.015625 68.378906 54.882812 67.488281 C 55.746094 66.597656 56.652344 65.75 57.601562 64.949219 C 58.550781 64.148438 59.535156 63.390625 60.554688 62.683594 C 61.574219 61.976562 62.628906 61.324219 63.714844 60.71875 C 80.738281 51.117188 103.824219 56.507812 113.507812 72.730469 C 108.652344 75.378906 103.871094 78.140625 98.90625 80.539062 C 98.128906 80.914062 96.347656 79.851562 95.375 79.042969 C 94.648438 78.378906 93.875 77.777344 93.058594 77.234375 C 92.242188 76.691406 91.386719 76.210938 90.496094 75.800781 C 89.605469 75.386719 88.6875 75.046875 87.746094 74.773438 C 86.800781 74.5 85.84375 74.300781 84.867188 74.175781 C 83.894531 74.050781 82.917969 74 81.933594 74.023438 C 80.953125 74.046875 79.976562 74.144531 79.011719 74.320312 C 78.046875 74.492188 77.097656 74.738281 76.167969 75.054688 C 75.238281 75.371094 74.339844 75.757812 73.46875 76.214844 Z M 84.417969 97.066406 C 87.507812 95.296875 90.445312 93.265625 93.691406 91.1875 C 93.910156 91.867188 94.058594 92.5625 94.148438 93.269531 C 94.238281 93.976562 94.261719 94.683594 94.222656 95.394531 C 94.179688 96.109375 94.074219 96.808594 93.90625 97.5 C 93.738281 98.195312 93.507812 98.867188 93.214844 99.515625 C 92.921875 100.164062 92.574219 100.785156 92.171875 101.371094 C 91.765625 101.957031 91.3125 102.503906 90.804688 103.007812 C 90.300781 103.511719 89.753906 103.964844 89.167969 104.367188 C 88.582031 104.773438 87.960938 105.121094 87.3125 105.414062 C 86.640625 105.71875 85.945312 105.964844 85.234375 106.144531 C 84.519531 106.328125 83.792969 106.449219 83.058594 106.5 C 82.320312 106.554688 81.585938 106.542969 80.851562 106.46875 C 80.121094 106.390625 79.398438 106.25 78.691406 106.046875 C 77.980469 105.839844 77.296875 105.574219 76.636719 105.246094 C 75.972656 104.921875 75.347656 104.539062 74.753906 104.101562 C 74.160156 103.664062 73.613281 103.175781 73.105469 102.640625 C 72.597656 102.101562 72.144531 101.527344 71.742188 100.910156 C 71.339844 100.292969 70.992188 99.644531 70.703125 98.96875 C 70.417969 98.289062 70.191406 97.589844 70.027344 96.871094 C 69.863281 96.152344 69.765625 95.425781 69.730469 94.691406 C 69.699219 93.953125 69.730469 93.222656 69.828125 92.492188 C 69.921875 91.761719 70.085938 91.042969 70.308594 90.34375 C 70.535156 89.640625 70.820312 88.964844 71.164062 88.3125 C 71.507812 87.664062 71.910156 87.046875 72.363281 86.46875 C 72.820312 85.886719 73.320312 85.351562 73.871094 84.863281 C 78.339844 80.679688 84.839844 80.617188 90.554688 85.046875 C 87.101562 87.039062 84.03125 88.804688 80.960938 90.585938 C 78.886719 91.789062 77.738281 93.433594 78.988281 95.820312 C 79.097656 96.066406 79.234375 96.296875 79.398438 96.511719 C 79.5625 96.726562 79.75 96.921875 79.957031 97.09375 C 80.164062 97.265625 80.390625 97.410156 80.632812 97.527344 C 80.875 97.648438 81.128906 97.738281 81.390625 97.800781 C 81.65625 97.859375 81.921875 97.890625 82.191406 97.886719 C 82.460938 97.886719 82.726562 97.855469 82.992188 97.792969 C 83.253906 97.730469 83.503906 97.636719 83.746094 97.515625 C 83.988281 97.394531 84.210938 97.246094 84.417969 97.070312 Z M 165.828125 49.019531 C 166.847656 50.980469 170.34375 51.65625 172.734375 52.890625 C 168.714844 57.273438 166.699219 57.40625 157.285156 53.667969 C 158.914062 48.230469 158.875 41.953125 166.269531 40.859375 C 166.023438 43.636719 164.75 46.9375 165.828125 49.019531 Z M 165.828125 49.019531 " fill-opacity="1" fill-rule="nonzero"/></g></svg>