<svg xmlns="http://www.w3.org/2000/svg" xmlns:xlink="http://www.w3.org/1999/xlink" width="250" zoomAndPan="magnify" viewBox="0 0 187.5 187.499992" height="250" preserveAspectRatio="xMidYMid meet" version="1.0"><defs><clipPath id="2cdf2c3dcd"><path d="M 0 7.96875 L 187 7.96875 L 187 179.71875 L 0 179.71875 Z M 0 7.96875 " clip-rule="nonzero"/></clipPath></defs><path fill="#008037" d="M 39.160156 113.335938 C 24.109375 113.335938 11.863281 125.589844 11.863281 140.660156 C 11.863281 155.726562 24.109375 167.980469 39.160156 167.980469 C 54.210938 167.980469 66.453125 155.726562 66.453125 140.660156 C 66.453125 125.589844 54.210938 113.335938 39.160156 113.335938 Z M 39.160156 160.179688 C 28.410156 160.179688 19.660156 151.417969 19.660156 140.660156 C 19.660156 129.898438 28.410156 121.136719 39.160156 121.136719 C 49.910156 121.136719 58.65625 129.898438 58.65625 140.660156 C 58.65625 151.417969 49.910156 160.179688 39.160156 160.179688 Z M 39.160156 160.179688 " fill-opacity="1" fill-rule="nonzero"/><g clip-path="url(#2cdf2c3dcd)"><path fill="#008037" d="M 184.617188 126.328125 L 163.800781 50.097656 C 163.726562 49.824219 161.925781 43.355469 156.78125 36.914062 C 154.363281 33.886719 150.960938 30.570312 146.355469 28.011719 L 144.136719 18.738281 L 144.078125 18.507812 C 143.945312 18.078125 140.679688 7.960938 124.941406 7.960938 C 116.917969 7.960938 112.558594 11.375 110.3125 14.242188 C 107.851562 17.386719 107.378906 20.578125 107.332031 20.929688 C 107.296875 21.207031 107.292969 21.476562 107.308594 21.746094 L 107.921875 29.429688 C 106.652344 30.34375 105.484375 31.367188 104.414062 32.5 C 99.65625 37.535156 98.121094 43.503906 97.632812 47.296875 C 96.503906 47.09375 95.210938 46.972656 93.75 46.972656 C 92.289062 46.972656 90.996094 47.089844 89.867188 47.296875 C 89.378906 43.503906 87.84375 37.535156 83.085938 32.5 C 82.015625 31.367188 80.847656 30.34375 79.578125 29.429688 L 80.191406 21.746094 L 80.167969 20.929688 C 80.121094 20.578125 79.648438 17.386719 77.183594 14.242188 C 74.941406 11.375 70.582031 7.960938 62.558594 7.960938 C 46.820312 7.960938 43.554688 18.078125 43.421875 18.507812 L 41.144531 28.011719 C 36.539062 30.570312 33.132812 33.886719 30.71875 36.914062 C 25.570312 43.355469 23.773438 49.824219 23.699219 50.097656 L 2.882812 126.328125 C 1.128906 130.765625 0.164062 135.605469 0.164062 140.660156 C 0.164062 162.183594 17.65625 179.691406 39.160156 179.691406 C 60.5625 179.691406 77.996094 162.335938 78.148438 140.945312 L 79.167969 133.167969 C 82.738281 137.171875 87.933594 139.699219 93.714844 139.699219 C 99.53125 139.699219 104.75 137.140625 108.324219 133.097656 L 109.347656 140.945312 C 109.503906 162.335938 126.9375 179.691406 148.339844 179.691406 C 169.84375 179.691406 187.335938 162.183594 187.335938 140.660156 C 187.335938 135.605469 186.371094 130.765625 184.617188 126.328125 Z M 150.519531 41.574219 C 154.742188 46.769531 156.265625 52.105469 156.277344 52.160156 L 171.96875 109.632812 C 170.152344 108.238281 168.214844 107 166.171875 105.949219 L 150.921875 50.09375 C 150.355469 48.011719 148.207031 46.789062 146.128906 47.359375 C 144.054688 47.925781 142.832031 50.070312 143.398438 52.152344 L 157.179688 102.632812 C 154.335938 101.96875 151.378906 101.625 148.339844 101.625 C 133.960938 101.625 121.378906 109.449219 114.621094 121.078125 L 105.226562 50.105469 C 105.277344 48.269531 105.792969 42.355469 110.144531 37.792969 C 114.148438 33.605469 120.4375 31.480469 128.84375 31.480469 C 137.785156 31.480469 145.078125 34.878906 150.519531 41.574219 Z M 115.128906 21.671875 C 115.261719 21.1875 115.621094 20.121094 116.453125 19.058594 C 118.164062 16.875 121.019531 15.765625 124.941406 15.765625 C 134.03125 15.765625 136.292969 20.074219 136.613281 20.789062 L 137.527344 24.628906 C 134.894531 24.023438 132.003906 23.671875 128.84375 23.671875 C 123.824219 23.671875 119.351562 24.332031 115.445312 25.632812 Z M 50.886719 20.792969 C 51.207031 20.074219 53.46875 15.765625 62.558594 15.765625 C 66.339844 15.765625 69.125 16.792969 70.855469 18.824219 C 71.816406 19.957031 72.222656 21.136719 72.371094 21.6875 L 72.054688 25.632812 C 68.148438 24.332031 63.675781 23.671875 58.65625 23.671875 C 55.496094 23.671875 52.605469 24.023438 49.972656 24.628906 Z M 31.222656 52.148438 C 31.277344 51.941406 37.09375 31.480469 58.65625 31.480469 C 67.0625 31.480469 73.351562 33.605469 77.355469 37.792969 C 81.714844 42.363281 82.230469 48.296875 82.273438 50.105469 L 72.878906 121.078125 C 66.121094 109.449219 53.539062 101.625 39.160156 101.625 C 36.121094 101.625 33.164062 101.96875 30.320312 102.632812 L 44.101562 52.152344 C 44.667969 50.070312 43.445312 47.925781 41.371094 47.359375 C 39.292969 46.789062 37.144531 48.011719 36.578125 50.09375 L 21.328125 105.949219 C 19.28125 107 17.347656 108.234375 15.53125 109.632812 L 31.222656 52.152344 Z M 39.160156 171.890625 C 21.957031 171.890625 7.960938 157.882812 7.960938 140.660156 C 7.960938 123.433594 21.957031 109.425781 39.160156 109.425781 C 56.359375 109.425781 70.351562 123.433594 70.351562 140.660156 C 70.351562 157.882812 56.359375 171.890625 39.160156 171.890625 Z M 93.714844 131.886719 C 87.265625 131.886719 82.019531 126.660156 82.019531 120.226562 C 82.019531 113.792969 87.265625 108.566406 93.714844 108.566406 C 100.171875 108.566406 105.414062 113.792969 105.414062 120.226562 C 105.414062 126.660156 100.171875 131.886719 93.714844 131.886719 Z M 93.714844 100.757812 C 89.75 100.757812 86.0625 101.953125 82.976562 103.992188 L 89.289062 55.738281 C 89.636719 55.414062 90.910156 54.78125 93.75 54.78125 C 96.589844 54.78125 97.855469 55.414062 98.210938 55.738281 L 104.527344 104.035156 C 101.433594 101.96875 97.714844 100.757812 93.714844 100.757812 Z M 148.339844 171.890625 C 131.140625 171.890625 117.144531 157.882812 117.144531 140.660156 C 117.144531 123.433594 131.140625 109.425781 148.339844 109.425781 C 165.542969 109.425781 179.539062 123.433594 179.539062 140.660156 C 179.539062 157.882812 165.542969 171.890625 148.339844 171.890625 Z M 148.339844 171.890625 " fill-opacity="1" fill-rule="nonzero"/></g><path fill="#008037" d="M 148.339844 113.335938 C 133.289062 113.335938 121.046875 125.589844 121.046875 140.660156 C 121.046875 155.726562 133.289062 167.980469 148.339844 167.980469 C 163.390625 167.980469 175.636719 155.726562 175.636719 140.660156 C 175.636719 125.589844 163.390625 113.335938 148.339844 113.335938 Z M 148.339844 160.179688 C 137.589844 160.179688 128.84375 151.417969 128.84375 140.660156 C 128.84375 129.898438 137.589844 121.136719 148.339844 121.136719 C 159.089844 121.136719 167.839844 129.898438 167.839844 140.660156 C 167.839844 151.417969 159.089844 160.179688 148.339844 160.179688 Z M 148.339844 160.179688 " fill-opacity="1" fill-rule="nonzero"/><path fill="#008037" d="M 93.75 116.320312 C 91.597656 116.320312 89.847656 118.070312 89.847656 120.226562 C 89.847656 122.382812 91.597656 124.132812 93.75 124.132812 C 95.902344 124.132812 97.652344 122.382812 97.652344 120.226562 C 97.652344 118.070312 95.902344 116.320312 93.75 116.320312 Z M 93.75 116.320312 " fill-opacity="1" fill-rule="nonzero"/></svg>