<svg xmlns="http://www.w3.org/2000/svg" xmlns:xlink="http://www.w3.org/1999/xlink" width="250" zoomAndPan="magnify" viewBox="0 0 187.5 187.499992" height="250" preserveAspectRatio="xMidYMid meet" version="1.0"><defs><clipPath id="152b5c1310"><path d="M 142 62 L 161.0625 62 L 161.0625 71 L 142 71 Z M 142 62 " clip-rule="nonzero"/></clipPath><clipPath id="6df36a9372"><path d="M 26.8125 62 L 46 62 L 46 71 L 26.8125 71 Z M 26.8125 62 " clip-rule="nonzero"/></clipPath></defs><path fill="#ff1616" d="M 93.3125 28.101562 C 91.300781 28.101562 89.65625 26.460938 89.65625 24.457031 L 89.65625 13.03125 C 89.65625 11.027344 91.300781 9.390625 93.3125 9.390625 C 95.324219 9.390625 96.972656 11.027344 96.972656 13.03125 L 96.972656 24.457031 C 96.972656 26.460938 95.324219 28.101562 93.3125 28.101562 Z M 93.3125 28.101562 " fill-opacity="1" fill-rule="nonzero"/><g clip-path="url(#152b5c1310)"><path fill="#ff1616" d="M 157.496094 70.148438 L 146.027344 70.148438 C 144.015625 70.148438 142.367188 68.507812 142.367188 66.503906 C 142.367188 64.5 144.015625 62.863281 146.027344 62.863281 L 157.496094 62.863281 C 159.507812 62.863281 161.152344 64.5 161.152344 66.503906 C 161.152344 68.507812 159.507812 70.148438 157.496094 70.148438 Z M 157.496094 70.148438 " fill-opacity="1" fill-rule="nonzero"/></g><g clip-path="url(#6df36a9372)"><path fill="#ff1616" d="M 41.9375 70.148438 L 30.46875 70.148438 C 28.457031 70.148438 26.8125 68.507812 26.8125 66.503906 C 26.8125 64.5 28.457031 62.863281 30.46875 62.863281 L 41.9375 62.863281 C 43.949219 62.863281 45.59375 64.5 45.59375 66.503906 C 45.59375 68.507812 43.949219 70.148438 41.9375 70.148438 Z M 41.9375 70.148438 " fill-opacity="1" fill-rule="nonzero"/></g><path fill="#ff1616" d="M 56.277344 43.730469 C 55.34375 43.730469 54.410156 43.367188 53.699219 42.65625 L 45.59375 34.585938 C 44.167969 33.164062 44.167969 30.851562 45.59375 29.429688 C 47.023438 28.007812 49.34375 28.007812 50.769531 29.429688 L 58.875 37.5 C 60.300781 38.921875 60.300781 41.234375 58.875 42.65625 C 58.140625 43.367188 57.210938 43.730469 56.277344 43.730469 Z M 56.277344 43.730469 " fill-opacity="1" fill-rule="nonzero"/><path fill="#ff1616" d="M 131.175781 43.730469 C 130.242188 43.730469 129.308594 43.367188 128.597656 42.65625 C 127.167969 41.234375 127.167969 38.921875 128.597656 37.5 L 136.699219 29.429688 C 138.125 28.007812 140.449219 28.007812 141.875 29.429688 C 143.300781 30.851562 143.300781 33.164062 141.875 34.585938 L 133.773438 42.65625 C 133.058594 43.367188 132.125 43.730469 131.175781 43.730469 Z M 131.175781 43.730469 " fill-opacity="1" fill-rule="nonzero"/><path fill="#ff1616" d="M 117.566406 130.765625 L 71.109375 130.765625 C 69.097656 130.765625 67.453125 129.125 67.453125 127.121094 L 67.453125 125.132812 C 67.453125 117.246094 64.761719 109.429688 59.679688 102.507812 C 54.265625 95.144531 51.394531 86.417969 51.394531 77.273438 C 51.394531 65.523438 56.332031 54.152344 64.945312 46.101562 C 73.671875 37.9375 85.101562 33.839844 97.082031 34.585938 C 119.269531 35.96875 136.917969 54.40625 137.285156 76.5625 C 137.449219 86.382812 134.359375 95.675781 128.339844 103.417969 C 123.765625 109.320312 121.242188 117.0625 121.242188 125.226562 L 121.242188 127.136719 C 121.226562 129.144531 119.597656 130.765625 117.566406 130.765625 Z M 74.75 123.476562 L 113.964844 123.476562 C 114.3125 114.347656 117.328125 105.695312 122.558594 98.953125 C 127.554688 92.523438 130.113281 84.816406 129.984375 76.671875 C 129.675781 58.289062 115.042969 42.984375 96.644531 41.855469 C 86.691406 41.234375 77.21875 44.625 69.976562 51.402344 C 62.734375 58.179688 58.726562 67.378906 58.726562 77.273438 C 58.726562 84.871094 61.105469 92.101562 65.585938 98.207031 C 71.238281 105.914062 74.382812 114.621094 74.75 123.476562 Z M 74.75 123.476562 " fill-opacity="1" fill-rule="nonzero"/><path fill="#ff1616" d="M 118.007812 144.8125 L 70.6875 144.8125 C 68.675781 144.8125 67.03125 143.171875 67.03125 141.167969 C 67.03125 139.164062 68.675781 137.523438 70.6875 137.523438 L 117.988281 137.523438 C 120 137.523438 121.644531 139.164062 121.644531 141.167969 C 121.644531 143.171875 120.019531 144.8125 118.007812 144.8125 Z M 118.007812 144.8125 " fill-opacity="1" fill-rule="nonzero"/><path fill="#ff1616" d="M 94.339844 177.898438 C 82.761719 177.898438 73.324219 168.515625 73.324219 156.964844 L 73.324219 154.175781 C 73.324219 152.171875 74.96875 150.53125 76.980469 150.53125 L 111.675781 150.53125 C 113.691406 150.53125 115.335938 152.171875 115.335938 154.175781 L 115.335938 156.964844 C 115.355469 168.515625 105.933594 177.898438 94.339844 177.898438 Z M 80.675781 157.820312 C 81.113281 164.941406 87.078125 170.609375 94.339844 170.609375 C 101.601562 170.609375 107.5625 164.941406 108 157.820312 Z M 80.675781 157.820312 " fill-opacity="1" fill-rule="nonzero"/><path fill="#ff1616" d="M 101.378906 130.765625 L 87.316406 130.765625 C 85.632812 130.765625 84.167969 129.632812 83.765625 128.011719 L 73.449219 87.09375 C 73.085938 85.652344 73.632812 84.140625 74.824219 83.265625 C 76.011719 82.390625 77.621094 82.320312 78.902344 83.085938 L 85.265625 86.929688 L 91.101562 75.597656 C 91.722656 74.375 92.984375 73.609375 94.355469 73.609375 C 95.730469 73.609375 96.992188 74.375 97.613281 75.597656 L 103.445312 86.929688 L 109.8125 83.085938 C 111.074219 82.320312 112.683594 82.390625 113.890625 83.265625 C 115.078125 84.140625 115.628906 85.652344 115.261719 87.09375 L 104.945312 128.011719 C 104.527344 129.632812 103.0625 130.765625 101.378906 130.765625 Z M 90.167969 123.476562 L 98.546875 123.476562 L 105.988281 93.925781 L 103.886719 95.199219 C 103.007812 95.730469 101.964844 95.875 100.996094 95.601562 C 100.027344 95.328125 99.203125 94.652344 98.726562 93.761719 L 94.355469 85.253906 L 89.984375 93.761719 C 89.527344 94.652344 88.707031 95.328125 87.71875 95.601562 C 86.75 95.875 85.6875 95.730469 84.828125 95.199219 L 82.722656 93.925781 Z M 90.167969 123.476562 " fill-opacity="1" fill-rule="nonzero"/></svg>