<svg xmlns="http://www.w3.org/2000/svg" xmlns:xlink="http://www.w3.org/1999/xlink" width="250" zoomAndPan="magnify" viewBox="0 0 187.5 187.499992" height="250" preserveAspectRatio="xMidYMid meet" version="1.0"><defs><clipPath id="99f141b9f2"><path d="M 18.75 9.800781 L 168.75 9.800781 L 168.75 177.769531 L 18.75 177.769531 Z M 18.75 9.800781 " clip-rule="nonzero"/></clipPath></defs><g clip-path="url(#99f141b9f2)"><path fill="#ff914d" d="M 163.09375 149.875 C 163.09375 152.4375 161.015625 154.519531 158.457031 154.519531 C 155.902344 154.519531 153.820312 152.4375 153.820312 149.875 L 153.820312 20.113281 C 153.820312 17.550781 155.902344 15.46875 158.457031 15.46875 C 161.015625 15.46875 163.09375 17.550781 163.09375 20.113281 Z M 148.074219 145.308594 C 112.496094 119.011719 82.902344 113.410156 74.070312 112.273438 L 74.070312 57.894531 C 82.902344 56.761719 112.496094 51.15625 148.074219 24.859375 Z M 64.402344 172.101562 C 60.078125 172.101562 56.273438 169.644531 55.554688 166.390625 L 42.253906 117.691406 L 62.417969 117.867188 L 74.394531 172.101562 Z M 24.40625 97.824219 L 24.40625 72.34375 C 24.40625 64.53125 30.746094 58.175781 38.539062 58.175781 L 68.417969 58.175781 L 68.417969 111.996094 L 38.539062 111.992188 C 30.746094 111.992188 24.40625 105.636719 24.40625 97.824219 Z M 158.457031 9.800781 C 153.71875 9.800781 149.730469 13.027344 148.539062 17.402344 C 107.421875 49.183594 72.941406 52.367188 71.140625 52.507812 L 38.539062 52.507812 C 27.628906 52.507812 18.75 61.40625 18.75 72.34375 L 18.75 97.824219 C 18.75 108.019531 26.464844 116.433594 36.347656 117.53125 L 50.050781 167.691406 C 51.382812 173.535156 57.40625 177.769531 64.402344 177.769531 L 81.4375 177.769531 L 68.164062 117.660156 L 71.140625 117.660156 C 72.972656 117.808594 107.472656 121.003906 148.597656 152.808594 C 149.863281 157.070312 153.800781 160.1875 158.457031 160.1875 C 164.132812 160.1875 168.75 155.5625 168.75 149.875 L 168.75 20.113281 C 168.75 14.425781 164.132812 9.800781 158.457031 9.800781 " fill-opacity="1" fill-rule="nonzero"/></g><path fill="#ff914d" d="M 37.886719 73.347656 L 57.628906 73.347656 C 59.191406 73.347656 60.457031 72.078125 60.457031 70.515625 C 60.457031 68.949219 59.191406 67.679688 57.628906 67.679688 L 37.886719 67.679688 C 36.324219 67.679688 35.058594 68.949219 35.058594 70.515625 C 35.058594 72.078125 36.324219 73.347656 37.886719 73.347656 " fill-opacity="1" fill-rule="nonzero"/><path fill="#ff914d" d="M 37.886719 88.082031 L 57.628906 88.082031 C 59.191406 88.082031 60.457031 86.816406 60.457031 85.25 C 60.457031 83.683594 59.191406 82.417969 57.628906 82.417969 L 37.886719 82.417969 C 36.324219 82.417969 35.058594 83.683594 35.058594 85.25 C 35.058594 86.816406 36.324219 88.082031 37.886719 88.082031 " fill-opacity="1" fill-rule="nonzero"/><path fill="#ff914d" d="M 60.457031 99.984375 C 60.457031 98.421875 59.191406 97.152344 57.628906 97.152344 L 37.886719 97.152344 C 36.324219 97.152344 35.058594 98.421875 35.058594 99.984375 C 35.058594 101.550781 36.324219 102.820312 37.886719 102.820312 L 57.628906 102.820312 C 59.191406 102.820312 60.457031 101.550781 60.457031 99.984375 " fill-opacity="1" fill-rule="nonzero"/></svg>