<svg viewBox="0 0 158.75 171.98" xmlns="http://www.w3.org/2000/svg"><path d="m78.5 141.38-35.3 20.37-35.27-20.37v-40.74l35.28-20.37 35.29 20.37Zm72.14-.16-35.28 20.37-35.28-20.37v-40.74l35.28-20.37 35.28 20.37zm-36.2-62.37L79.16 99.22 43.88 78.85V38.11l35.28-20.37 35.28 20.37z" fill="#fc0" fill-rule="evenodd" stroke="#333" stroke-width="3.17" stroke-linecap="round" paint-order="stroke fill markers"/><path d="m49.96 113.52.43-2.02.24-.03a.85.85 0 0 0 .7-.62c.09-.31.02-.53-.24-.8l-.22-.23.52-.22c.3-.12.83-.3 1.21-.4l.69-.18 2.56 1.6 2.57 1.61.11.6c.06.34.14.9.17 1.27l.05.67-.2-.09c-.31-.12-.54-.12-.79 0a.84.84 0 0 0-.39 1.05l.07.19-1.62 1.27-1.63 1.26-2.33-1.46-2.33-1.46z" fill="#fc0" fill-rule="evenodd" stroke="#fc0" stroke-width=".4" stroke-linecap="round" stroke-linejoin="round" paint-order="stroke fill markers"/><path d="M55.94 108.17a11 11 0 0 0 .9-.71 5.5 5.5 0 0 0 1.2-1.58 6.8 6.8 0 0 0 .9-1.75l.27-.74c.13-.24 1.08.17 1.53.67.12.13.22.27.22.3 0 .02-.22.24-.48.49a8.1 8.1 0 0 0-2.46 4.59l-.07.53-1.21-.76-1.22-.76z" fill="#4d4d4d" fill-rule="evenodd" stroke="#4d4d4d" stroke-width=".4" stroke-linecap="round" stroke-linejoin="round" paint-order="stroke fill markers"/><path d="M42.21 122.4a24.33 24.33 0 0 0 2.19-1.18l.9-.56 3.07 1.92 3.05 1.91-.1.87a22.27 22.27 0 0 0-.11 2.48v.22l-4.5-2.82c-2.48-1.55-4.5-2.84-4.5-2.85z" fill="#fc0" fill-rule="evenodd" stroke="#fc0" stroke-width=".4" stroke-linecap="round" stroke-linejoin="round" paint-order="stroke fill markers"/><path d="M46.81 119.6c.04-.02.55-.46 1.15-.95a65.07 65.07 0 0 0 1.26-1.07l.17-.16 1.58.97 1.58.96-.14.49c-.12.41-.62 2.45-.7 2.8-.02.12-.18.02-2.49-1.43-1.95-1.22-2.46-1.56-2.41-1.6zm-3.76 11.07a6.23 6.23 0 0 0-.63-1.57 9.76 9.76 0 0 0-.65-.88c-.25-.3-.5-.68-.56-.86a7.1 7.1 0 0 1-.2-2.74l.09-.96 4.69 2.92c2.58 1.6 4.7 2.94 4.7 2.96a7.48 7.48 0 0 1-3.34 1.57 5.1 5.1 0 0 1-1-.14 5.61 5.61 0 0 0-2.43-.14l-.61.11z" fill="#4d4d4d" fill-rule="evenodd" stroke="#4d4d4d" stroke-width=".4" stroke-linecap="round" stroke-linejoin="round" paint-order="stroke fill markers"/><g transform="rotate(32 -83.4 126.1)"><path d="M24.06 30.18c1.6 3.11.96 6.83-1.05 8.1m5.7-8.1c-1.6 3.11-.96 6.83 1.05 8.1" fill="none" stroke="#333" stroke-width="1.59"/><path d="M24.45 30.39c-5.79.57-4.8 6.89-1.13 7.85m5-7.85c5.79.57 4.8 6.89 1.13 7.85m-5-7.86c.69-.09 1.1-.38 1.55-.38m2.31.39c-.68-.1-1.1-.4-1.54-.39" fill="none" stroke="#333" stroke-width="1.59"/><path d="M26 30c-.56-4.74-2.65-1.22-7.83-1.15m8.6 1.15c.56-4.74 2.65-1.22 7.82-1.15m-11.58 9.43c-2.4 2.14-4.46 5.62-1.43 9.5-2.08 2.4-2.47 5.3-2.07 8.37.2 1.59 1.15 4 2.67 5.4 1.19 1.1 2.34.23 4.2 2.83m3.38-26.1c2.4 2.14 4.45 5.62 1.43 9.5 2.07 2.4 2.46 5.3 2.07 8.37a9.8 9.8 0 0 1-2.68 5.4c-1.18 1.1-2.33.23-4.2 2.83m-5.17-24.72-4.84-3.16-1.54-4.37-1.9-.34m18.63 7.87 4.84-3.16 1.53-4.37 1.9-.34M19.02 54.66l-5.05 2.36-.08 9.4-1.72 1.6m21.6-13.36 5.05 2.36.08 9.4 1.72 1.6" fill="none" stroke="#333" stroke-width="1.59" stroke-linecap="round"/><path d="M22.79 37.29a3.56 3.56 0 0 1-1.77-3.3c.13-1.38 1-2.34 2.52-2.75l.24-.06.13.41c.61 1.88.45 3.89-.41 5.24a2 2 0 0 1-.5.55 1 1 0 0 1-.21-.1zm7.2 0a3.56 3.56 0 0 0 1.75-3.3c-.12-1.38-1-2.34-2.5-2.75l-.25-.06-.13.41c-.62 1.88-.46 3.89.4 5.24.15.22.45.56.5.55a1 1 0 0 0 .22-.1z" fill="#6f7c91" stroke="#6f7c91" stroke-width=".13" stroke-linecap="round" paint-order="fill markers stroke"/><a fill="#afe"><path d="M21.9 41.9c-27.43 11.63-5 32.29 2 5.5m6.97-5.5c27.42 11.63 5 32.29-2 5.5" stroke="#333" stroke-width="1.59" stroke-linecap="round"/></a><path d="M20.22 57.1h6.16m6.17 0h-6.17m-4.06-4.75h4.06m4.07 0h-4.07" fill="none" stroke="#333" stroke-width="1.59" stroke-linecap="round"/><path d="M23.9 47.4h2.48m2.49 0h-2.49m-3.06-9.16h3.06m3.07 0h-3.07" fill="#373e48" stroke="#333" stroke-width="1.59" stroke-linecap="round"/></g><path d="m107.2 83.47-1.85-.93.04-.25a.85.85 0 0 0-.42-.83c-.28-.16-.51-.15-.84.04l-.28.15-.08-.56a12.2 12.2 0 0 1-.08-1.28v-.7l2.2-2.08 2.21-2.07.62.04c.33.03.9.1 1.27.16l.65.12-.14.18c-.2.26-.25.48-.2.76.1.42.47.68.92.64l.2-.02.81 1.9.81 1.9-2 1.88-2 1.88z" fill="#fc0" fill-rule="evenodd" stroke="#fc0" stroke-width=".4" stroke-linecap="round" stroke-linejoin="round" paint-order="stroke fill markers"/><path d="M103.55 76.33a9.48 9.48 0 0 0-.47-1.05 5.5 5.5 0 0 0-1.22-1.56 6.83 6.83 0 0 0-1.46-1.33 9.84 9.84 0 0 1-.64-.44c-.2-.19.43-1 1.03-1.31.16-.08.31-.15.34-.14.02 0 .19.27.36.58a8.1 8.1 0 0 0 3.8 3.56l.5.2-1.04.98-1.04.98z" fill="#4d4d4d" fill-rule="evenodd" stroke="#4d4d4d" stroke-width=".4" stroke-linecap="round" stroke-linejoin="round" paint-order="stroke fill markers"/><path d="M113.8 93.22a9.93 9.93 0 0 1-.14-.7 23.61 23.61 0 0 0-.44-1.72l-.3-1.02 2.63-2.47 2.63-2.47.81.31c.72.28 1.75.6 2.38.75l.21.05-3.88 3.64c-2.13 2-3.88 3.64-3.9 3.63z" fill="#fc0" fill-rule="evenodd" stroke="#fc0" stroke-width=".4" stroke-linecap="round" stroke-linejoin="round" paint-order="stroke fill markers"/><path d="m112.28 88.06-.63-1.35a65.07 65.07 0 0 0-.7-1.49l-.12-.21 1.33-1.28 1.34-1.28.43.26a81.12 81.12 0 0 0 2.54 1.38c.1.05-.03.19-2.02 2.05-1.68 1.58-2.13 1.98-2.17 1.92zm9.74 6.45a6.2 6.2 0 0 0-1.67.2 9.76 9.76 0 0 0-1.02.42c-.35.16-.78.3-.97.32a7.1 7.1 0 0 1-2.7-.5l-.91-.33 4.01-3.8c2.21-2.09 4.04-3.8 4.07-3.8.07 0 .36.88.5 1.5.16.7.24 1.72.16 2.14-.03.18-.2.6-.38.93a5.54 5.54 0 0 0-.76 2.31l-.04.62z" fill="#4d4d4d" fill-rule="evenodd" stroke="#4d4d4d" stroke-width=".4" stroke-linecap="round" stroke-linejoin="round" paint-order="stroke fill markers"/><g transform="rotate(-43.2 114.1 -42.34)"><path d="M24.06 30.18c1.6 3.11.96 6.83-1.05 8.1m5.7-8.1c-1.6 3.11-.96 6.83 1.05 8.1" fill="none" stroke="#333" stroke-width="1.59"/><path d="M24.45 30.39c-5.79.57-4.8 6.89-1.13 7.85m5-7.85c5.79.57 4.8 6.89 1.13 7.85m-5-7.86c.69-.09 1.1-.38 1.55-.38m2.31.39c-.68-.1-1.1-.4-1.54-.39" fill="none" stroke="#333" stroke-width="1.59"/><path d="M26 30c-.56-4.74-2.65-1.22-7.83-1.15m8.6 1.15c.56-4.74 2.65-1.22 7.82-1.15m-11.58 9.43c-2.4 2.14-4.46 5.62-1.43 9.5-2.08 2.4-2.47 5.3-2.07 8.37.2 1.59 1.15 4 2.67 5.4 1.19 1.1 2.34.23 4.2 2.83m3.38-26.1c2.4 2.14 4.45 5.62 1.43 9.5 2.07 2.4 2.46 5.3 2.07 8.37a9.8 9.8 0 0 1-2.68 5.4c-1.18 1.1-2.33.23-4.2 2.83m-5.17-24.72-4.84-3.16-1.54-4.37-1.9-.34m18.63 7.87 4.84-3.16 1.53-4.37 1.9-.34M19.02 54.66l-5.05 2.36-.08 9.4-1.72 1.6m21.6-13.36 5.05 2.36.08 9.4 1.72 1.6" fill="none" stroke="#333" stroke-width="1.59" stroke-linecap="round"/><path d="M22.79 37.29a3.56 3.56 0 0 1-1.77-3.3c.13-1.38 1-2.34 2.52-2.75l.24-.06.13.41c.61 1.88.45 3.89-.41 5.24a2 2 0 0 1-.5.55 1 1 0 0 1-.21-.1zm7.2 0a3.56 3.56 0 0 0 1.75-3.3c-.12-1.38-1-2.34-2.5-2.75l-.25-.06-.13.41c-.62 1.88-.46 3.89.4 5.24.15.22.45.56.5.55a1 1 0 0 0 .22-.1z" fill="#6f7c91" stroke="#6f7c91" stroke-width=".13" stroke-linecap="round" paint-order="fill markers stroke"/><a fill="#afe"><path d="M21.9 41.9c-27.43 11.63-5 32.29 2 5.5m6.97-5.5c27.42 11.63 5 32.29-2 5.5" stroke="#333" stroke-width="1.59" stroke-linecap="round"/></a><path d="M20.22 57.1h6.16m6.17 0h-6.17m-4.06-4.75h4.06m4.07 0h-4.07" fill="none" stroke="#333" stroke-width="1.59" stroke-linecap="round"/><path d="M23.9 47.4h2.48m2.49 0h-2.49m-3.06-9.16h3.06m3.07 0h-3.07" fill="#373e48" stroke="#333" stroke-width="1.59" stroke-linecap="round"/></g><path d="m74.4 32.28 1.26 1.63-.14.2a.85.85 0 0 0 .02.94c.19.26.4.35.77.33l.32-.02-.17.54c-.1.3-.3.83-.47 1.18l-.3.64-2.89.93-2.88.92-.54-.3a14.88 14.88 0 0 1-1.07-.7l-.55-.38.2-.1c.3-.15.44-.33.5-.6a.81.81 0 0 0-.54-.97l-.2-.07.1-2.06.07-2.06 2.62-.84 2.62-.84z" fill="#fc0" fill-rule="evenodd" stroke="#fc0" stroke-width=".4" stroke-linecap="round" stroke-linejoin="round" paint-order="stroke fill markers"/><path d="M74.62 40.3c-.03.26-.05.78-.03 1.14.02.62.05.75.43 1.93.36 1.11.45 1.35.75 1.83.19.3.36.61.4.68.1.25-.83.71-1.5.73-.18.01-.35 0-.37-.02a3.8 3.8 0 0 1-.07-.68 8.1 8.1 0 0 0-1.92-4.84l-.36-.4 1.36-.43 1.36-.44z" fill="#4d4d4d" fill-rule="evenodd" stroke="#4d4d4d" stroke-width=".4" stroke-linecap="round" stroke-linejoin="round" paint-order="stroke fill markers"/><path d="M72.6 20.63c.01.02-.06.33-.16.7a23.61 23.61 0 0 0-.34 1.74l-.17 1.05-3.43 1.1-3.44 1.1-.6-.63a22.27 22.27 0 0 0-1.82-1.7l-.17-.13 5.06-1.63c2.79-.9 5.07-1.61 5.08-1.6z" fill="#fc0" fill-rule="evenodd" stroke="#fc0" stroke-width=".4" stroke-linecap="round" stroke-linejoin="round" paint-order="stroke fill markers"/><path d="M71.77 25.94v1.5a65.07 65.07 0 0 0 0 1.65v.24l-1.75.58-1.76.58-.28-.42a81.12 81.12 0 0 0-1.7-2.34c-.07-.09.11-.15 2.7-.98 2.2-.7 2.78-.87 2.79-.8zm-6.03-10c.37.2 1.14.46 1.6.53a9.76 9.76 0 0 0 1.1.07c.38 0 .83.05 1.02.12.58.2 1.5.86 2.22 1.61l.68.7-5.26 1.7c-2.9.94-5.28 1.7-5.3 1.68-.06-.03.05-.94.18-1.56.16-.7.53-1.66.78-2 .11-.16.45-.46.75-.68a5.63 5.63 0 0 0 1.68-1.76l.3-.54z" fill="#4d4d4d" fill-rule="evenodd" stroke="#4d4d4d" stroke-width=".4" stroke-linecap="round" stroke-linejoin="round" paint-order="stroke fill markers"/><g transform="rotate(162.2 49.63 42.48)"><path d="M24.06 30.18c1.6 3.11.96 6.83-1.05 8.1m5.7-8.1c-1.6 3.11-.96 6.83 1.05 8.1" fill="none" stroke="#333" stroke-width="1.59"/><path d="M24.45 30.39c-5.79.57-4.8 6.89-1.13 7.85m5-7.85c5.79.57 4.8 6.89 1.13 7.85m-5-7.86c.69-.09 1.1-.38 1.55-.38m2.31.39c-.68-.1-1.1-.4-1.54-.39" fill="none" stroke="#333" stroke-width="1.59"/><path d="M26 30c-.56-4.74-2.65-1.22-7.83-1.15m8.6 1.15c.56-4.74 2.65-1.22 7.82-1.15m-11.58 9.43c-2.4 2.14-4.46 5.62-1.43 9.5-2.08 2.4-2.47 5.3-2.07 8.37.2 1.59 1.15 4 2.67 5.4 1.19 1.1 2.34.23 4.2 2.83m3.38-26.1c2.4 2.14 4.45 5.62 1.43 9.5 2.07 2.4 2.46 5.3 2.07 8.37a9.8 9.8 0 0 1-2.68 5.4c-1.18 1.1-2.33.23-4.2 2.83m-5.17-24.72-4.84-3.16-1.54-4.37-1.9-.34m18.63 7.87 4.84-3.16 1.53-4.37 1.9-.34M19.02 54.66l-5.05 2.36-.08 9.4-1.72 1.6m21.6-13.36 5.05 2.36.08 9.4 1.72 1.6" fill="none" stroke="#333" stroke-width="1.59" stroke-linecap="round"/><path d="M22.79 37.29a3.56 3.56 0 0 1-1.77-3.3c.13-1.38 1-2.34 2.52-2.75l.24-.06.13.41c.61 1.88.45 3.89-.41 5.24a2 2 0 0 1-.5.55 1 1 0 0 1-.21-.1zm7.2 0a3.56 3.56 0 0 0 1.75-3.3c-.12-1.38-1-2.34-2.5-2.75l-.25-.06-.13.41c-.62 1.88-.46 3.89.4 5.24.15.22.45.56.5.55a1 1 0 0 0 .22-.1z" fill="#6f7c91" stroke="#6f7c91" stroke-width=".13" stroke-linecap="round" paint-order="fill markers stroke"/><a fill="#afe"><path d="M21.9 41.9c-27.43 11.63-5 32.29 2 5.5m6.97-5.5c27.42 11.63 5 32.29-2 5.5" stroke="#333" stroke-width="1.59" stroke-linecap="round"/></a><path d="M20.22 57.1h6.16m6.17 0h-6.17m-4.06-4.75h4.06m4.07 0h-4.07" fill="none" stroke="#333" stroke-width="1.59" stroke-linecap="round"/><path d="M23.9 47.4h2.48m2.49 0h-2.49m-3.06-9.16h3.06m3.07 0h-3.07" fill="#373e48" stroke="#333" stroke-width="1.59" stroke-linecap="round"/></g></svg>