<?xml version="1.0" encoding="UTF-8"?>
<!-- Created with Inkscape (http://www.inkscape.org/) -->
<svg width="100px" height="100px" version="1.1" viewBox="0 0 55 55" xmlns="http://www.w3.org/2000/svg" xmlns:cc="http://creativecommons.org/ns#" xmlns:dc="http://purl.org/dc/elements/1.1/" xmlns:rdf="http://www.w3.org/1999/02/22-rdf-syntax-ns#">
 <metadata> 
  <rdf:RDF>
   <cc:Work rdf:about="">
    <dc:format>image/svg+xml</dc:format>
    <dc:type rdf:resource="http://purl.org/dc/dcmitype/StillImage"/>
    <dc:title/>
   </cc:Work>
  </rdf:RDF>
 </metadata>
 <g transform="translate(0,-242)">
  <g transform="translate(-12.767 185.02)">
   <path d="m14.155 81.828l8.4005 0.13229 1.5214 1.5214" fill="none" stroke="#000" stroke-width=".26458px"/>
   <path d="m40.296 59.111a26.233 25.345 0 0 1 26.233 25.311 26.233 25.345 0 0 1 -26.164 25.378 26.233 25.345 0 0 1 -26.302 -25.244 26.233 25.345 0 0 1 26.094 -25.445" fill="#800000" stroke="#fff" stroke-width=".71227"/>
   <path d="m40.138 59.063c0.4277 0.0049 0.4277 0.0049 0.4277 0.0049l-4e-3 0.0944-0.4071 0.0021z" fill="#a00" stroke="#fff" stroke-width=".6"/>
   <g fill="none">
    <g stroke="#fff">
     <path transform="matrix(-.99994 -.011383 .011273 -.99994 0 0)" d="m-43.213-69.098a1.0485 0.97316 0 0 1 1.0485 0.97188 1.0485 0.97316 0 0 1 -1.0458 0.97445 1.0485 0.97316 0 0 1 -1.0513 -0.9693 1.0485 0.97316 0 0 1 1.043 -0.97701" stroke-width=".7"/>
     <path transform="matrix(.088298 .99609 -.99602 .089153 0 0)" d="m72.942-43.65a1.0536 0.96849 0 0 1 1.0536 0.96721 1.0536 0.96849 0 0 1 -1.0508 0.96976 1.0536 0.96849 0 0 1 -1.0564 -0.96464 1.0536 0.96849 0 0 1 1.048 -0.97231" stroke-width=".7"/>
     <g stroke-width=".7">
      <path transform="matrix(-.99994 -.011383 .011273 -.99994 0 0)" d="m-52.601-69.002a1.0485 0.97316 0 0 1 1.0485 0.97188 1.0485 0.97316 0 0 1 -1.0458 0.97445 1.0485 0.97316 0 0 1 -1.0513 -0.9693 1.0485 0.97316 0 0 1 1.043 -0.97701"/>
      <path d="m49.812 68.76l0.97871-0.02503"/>
      <path d="m51.92 64.417a0.99172 1.002 0 0 1 0.99172 1.0007 0.99172 1.002 0 0 1 -0.9891 1.0033 0.99172 1.002 0 0 1 -0.99434 -0.99803 0.99172 1.002 0 0 1 0.98647 -1.006"/>
      <path d="m55.051 67.553a0.99172 1.002 0 0 1 0.99172 1.0007 0.99172 1.002 0 0 1 -0.9891 1.0033 0.99172 1.002 0 0 1 -0.99434 -0.99803 0.99172 1.002 0 0 1 0.98647 -1.006"/>
      <path d="m58.227 67.619a0.99172 1.002 0 0 1 0.99172 1.0007 0.99172 1.002 0 0 1 -0.9891 1.0033 0.99172 1.002 0 0 1 -0.99434 -0.99803 0.99172 1.002 0 0 1 0.98647 -1.006"/>
      <path d="m61.27 70.43a0.99172 1.002 0 0 1 0.99172 1.0007 0.99172 1.002 0 0 1 -0.9891 1.0033 0.99172 1.002 0 0 1 -0.99434 -0.99803 0.99172 1.002 0 0 1 0.98647 -1.006"/>
      <path d="m61.38 77.917a0.99172 1.002 0 0 1 0.99172 1.0007 0.99172 1.002 0 0 1 -0.9891 1.0033 0.99172 1.002 0 0 1 -0.99434 -0.99803 0.99172 1.002 0 0 1 0.98647 -1.006"/>
      <path d="m64.266 77.941a0.99172 1.002 0 0 1 0.99172 1.0007 0.99172 1.002 0 0 1 -0.9891 1.0033 0.99172 1.002 0 0 1 -0.99434 -0.99803 0.99172 1.002 0 0 1 0.98647 -1.006"/>
      <path d="m61.38 81.308a0.99172 1.002 0 0 1 0.99172 1.0007 0.99172 1.002 0 0 1 -0.9891 1.0033 0.99172 1.002 0 0 1 -0.99434 -0.99803 0.99172 1.002 0 0 1 0.98647 -1.006"/>
      <path d="m64.289 81.355a0.99172 1.002 0 0 1 0.99172 1.0007 0.99172 1.002 0 0 1 -0.9891 1.0033 0.99172 1.002 0 0 1 -0.99434 -0.99803 0.99172 1.002 0 0 1 0.98647 -1.006"/>
      <path d="m21.594 67.604a0.99172 1.002 0 0 1 0.99172 1.0007 0.99172 1.002 0 0 1 -0.9891 1.0033 0.99172 1.002 0 0 1 -0.99434 -0.99803 0.99172 1.002 0 0 1 0.98647 -1.006"/>
     </g>
     <path transform="matrix(.040773 .99917 -.99915 .041171 0 0)" d="m69.597-24.511a0.99654 0.99717 0 0 1 0.99654 0.99585 0.99654 0.99717 0 0 1 -0.9939 0.99848 0.99654 0.99717 0 0 1 -0.99917 -0.99321 0.99654 0.99717 0 0 1 0.99126 -1.0011" stroke-width=".7"/>
     <path transform="matrix(.96917 -.2464 .24416 .96973 0 0)" d="m13.294 68.18a0.99201 1.0017 0 0 1 0.99201 1.0004 0.99201 1.0017 0 0 1 -0.98939 1.003 0.99201 1.0017 0 0 1 -0.99463 -0.99774 0.99201 1.0017 0 0 1 0.98676 -1.0057" stroke-width=".7"/>
     <g stroke-width=".7">
      <path d="m27.059 64.289a0.99172 1.002 0 0 1 0.99172 1.0007 0.99172 1.002 0 0 1 -0.9891 1.0033 0.99172 1.002 0 0 1 -0.99434 -0.99803 0.99172 1.002 0 0 1 0.98647 -1.006"/>
      <path d="m15.826 81.319a0.99172 1.002 0 0 1 0.99172 1.0007 0.99172 1.002 0 0 1 -0.9891 1.0033 0.99172 1.002 0 0 1 -0.99434 -0.99803 0.99172 1.002 0 0 1 0.98647 -1.006"/>
      <path transform="matrix(.00070557 1 -1 .00071246 0 0)" d="m76.266-18.844a0.99655 0.99716 0 0 1 0.99655 0.99584 0.99655 0.99716 0 0 1 -0.99391 0.99847 0.99655 0.99716 0 0 1 -0.99918 -0.9932 0.99655 0.99716 0 0 1 0.99127 -1.0011"/>
      <path d="m36.106 67.861a0.99172 1.002 0 0 1 0.99172 1.0007 0.99172 1.002 0 0 1 -0.9891 1.0033 0.99172 1.002 0 0 1 -0.99434 -0.99803 0.99172 1.002 0 0 1 0.98647 -1.006"/>
      <path d="m36.083 62.833a0.99172 1.002 0 0 1 0.99172 1.0007 0.99172 1.002 0 0 1 -0.9891 1.0033 0.99172 1.002 0 0 1 -0.99434 -0.99803 0.99172 1.002 0 0 1 0.98647 -1.006"/>
      <path d="m32.917 62.833a0.99172 1.002 0 0 1 0.99172 1.0007 0.99172 1.002 0 0 1 -0.9891 1.0033 0.99172 1.002 0 0 1 -0.99434 -0.99803 0.99172 1.002 0 0 1 0.98647 -1.006"/>
      <path d="m26.322 96.145a0.99172 1.002 0 0 1 0.99172 1.0007 0.99172 1.002 0 0 1 -0.9891 1.0033 0.99172 1.002 0 0 1 -0.99434 -0.99803 0.99172 1.002 0 0 1 0.98647 -1.006"/>
      <path d="m26.368 93.011a0.99172 1.002 0 0 1 0.99172 1.0007 0.99172 1.002 0 0 1 -0.9891 1.0033 0.99172 1.002 0 0 1 -0.99434 -0.99803 0.99172 1.002 0 0 1 0.98647 -1.006"/>
      <path d="m22.644 91.374a0.99172 1.002 0 0 1 0.99172 1.0007 0.99172 1.002 0 0 1 -0.9891 1.0033 0.99172 1.002 0 0 1 -0.99434 -0.99803 0.99172 1.002 0 0 1 0.98647 -1.006"/>
      <path d="m23.027 87.71a0.99172 1.002 0 0 1 0.99172 1.0007 0.99172 1.002 0 0 1 -0.9891 1.0033 0.99172 1.002 0 0 1 -0.99434 -0.99803 0.99172 1.002 0 0 1 0.98647 -1.006"/>
      <path d="m17.803 93.399a0.99172 1.002 0 0 1 0.99172 1.0007 0.99172 1.002 0 0 1 -0.9891 1.0033 0.99172 1.002 0 0 1 -0.99434 -0.99803 0.99172 1.002 0 0 1 0.98647 -1.006"/>
      <path d="m15.852 88.207a0.99172 1.002 0 0 1 0.99172 1.0007 0.99172 1.002 0 0 1 -0.9891 1.0033 0.99172 1.002 0 0 1 -0.99434 -0.99803 0.99172 1.002 0 0 1 0.98647 -1.006"/>
      <path d="m15.819 85.032a0.99172 1.002 0 0 1 0.99172 1.0007 0.99172 1.002 0 0 1 -0.9891 1.0033 0.99172 1.002 0 0 1 -0.99434 -0.99803 0.99172 1.002 0 0 1 0.98647 -1.006"/>
      <path d="m19.307 81.592a0.99172 1.002 0 0 1 0.99172 1.0007 0.99172 1.002 0 0 1 -0.9891 1.0033 0.99172 1.002 0 0 1 -0.99434 -0.99803 0.99172 1.002 0 0 1 0.98647 -1.006"/>
      <path d="m29.52 101.72a0.99172 1.002 0 0 1 0.99172 1.0007 0.99172 1.002 0 0 1 -0.9891 1.0033 0.99172 1.002 0 0 1 -0.99434 -0.99804 0.99172 1.002 0 0 1 0.98647 -1.006"/>
      <path d="m29.566 104.95a0.99172 1.002 0 0 1 0.99172 1.0007 0.99172 1.002 0 0 1 -0.9891 1.0033 0.99172 1.002 0 0 1 -0.99434 -0.99803 0.99172 1.002 0 0 1 0.98647 -1.006"/>
      <path d="m42.459 106.47a0.99172 1.002 0 0 1 0.99172 1.0007 0.99172 1.002 0 0 1 -0.9891 1.0033 0.99172 1.002 0 0 1 -0.99434 -0.99803 0.99172 1.002 0 0 1 0.98647 -1.006"/>
      <path d="m39.294 106.47a0.99172 1.002 0 0 1 0.99172 1.0007 0.99172 1.002 0 0 1 -0.9891 1.0033 0.99172 1.002 0 0 1 -0.99434 -0.99803 0.99172 1.002 0 0 1 0.98647 -1.006"/>
      <path d="m36.106 106.5a0.99172 1.002 0 0 1 0.99172 1.0007 0.99172 1.002 0 0 1 -0.9891 1.0033 0.99172 1.002 0 0 1 -0.99434 -0.99803 0.99172 1.002 0 0 1 0.98647 -1.006"/>
      <path d="m61.939 93.492a0.99172 1.002 0 0 1 0.99172 1.0007 0.99172 1.002 0 0 1 -0.9891 1.0033 0.99172 1.002 0 0 1 -0.99434 -0.99803 0.99172 1.002 0 0 1 0.98647 -1.006"/>
      <path d="m45.88 96.065a0.99172 1.002 0 0 1 0.99172 1.0007 0.99172 1.002 0 0 1 -0.9891 1.0033 0.99172 1.002 0 0 1 -0.99434 -0.99803 0.99172 1.002 0 0 1 0.98647 -1.006"/>
      <path d="m51.885 99.339a0.99172 1.002 0 0 1 0.99172 1.0007 0.99172 1.002 0 0 1 -0.9891 1.0033 0.99172 1.002 0 0 1 -0.99434 -0.99803 0.99172 1.002 0 0 1 0.98647 -1.006"/>
      <path d="m45.834 106.47a0.99172 1.002 0 0 1 0.99172 1.0007 0.99172 1.002 0 0 1 -0.9891 1.0033 0.99172 1.002 0 0 1 -0.99434 -0.99803 0.99172 1.002 0 0 1 0.98647 -1.006"/>
     </g>
     <g>
      <g stroke-width=".7">
       <path d="m17.699 71.526 6.6815 0.06615 1.1477 2.1167"/>
       <path d="m25.758 69.332-2.1064 2.1828"/>
       <path d="m27.327 68.525 7.7781 0.2779"/>
       <path d="m36.027 69.795 0.06578 5.6885"/>
       <path d="m29.526 62.839-0.0061-1.6672"/>
       <path d="m32.941 60.034c0 0.13006-0.02846 2.7997-0.02846 2.7997"/>
       <path d="m36.083 59.32-5e-3 3.5137"/>
       <path d="m36.056 67.911 2.9814-2.7174 0.03843-6.1728"/>
       <path d="m21.607 66.781c0.03493 0.02567-0.01821 0.82344-0.01821 0.82344"/>
      </g>
      <path d="m61.357 72.288 0.01801 5.6296" stroke-width=".57793"/>
      <g stroke-width=".7">
       <path d="m55.05 69.588c0 0.09354-0.02329 5.5191-0.02329 5.5191"/>
       <path d="m58.215 69.588-0.04657 6.1038 2.4902 2.5725"/>
       <path d="m64.243 74.219c0.02329 0.1637 0.01801 3.722 0.01801 3.722"/>
       <path d="m65.243 82.334h1.024"/>
       <path d="m57.447 83.409 2.1411 2.4789 7.0284 0.04677"/>
      </g>
      <path d="m56.757 85.436 2.7223 3.8277 6.6356 0.04696" stroke-width=".67055"/>
      <path d="m53.933 88.718h2.5767l3.1468 3.6719 5.6322 0.02339" stroke-width=".69292"/>
      <g stroke-width=".7">
       <path d="m48.347 93.863c0.23273 0.30402 0.67491 0.74836 0.67491 0.74836l11.892-0.07016"/>
       <path d="m47.059 95.238 1.8028 1.95 14.137-0.0235"/>
       <path d="m52.856 100.32c0.09765 0.0489 7.8508 0.0489 7.8508 0.0489"/>
       <path d="m45.834 98.002-5e-3 8.4694"/>
       <path d="m42.343 98.938c0 0.11693 0.11112 7.5339 0.11112 7.5339"/>
       <path d="m39.289 106.47-0.08787-6.8323"/>
       <path d="m36.101 106.5-0.01801-6.809"/>
       <path d="m36.575 108.18c0.14232 0.0926 1.8146 1.528 1.8146 1.528"/>
       <path d="m39.7 108.21c0.08774 0.0495 1.7899 1.6671 1.7899 1.6671"/>
      </g>
     </g>
    </g>
    <path d="m42.955 108.2 1.5876 1.2622" stroke-width="0"/>
    <g stroke="#fff">
     <g stroke-width=".7">
      <path d="m27.332 97.16 5.9113-0.14032"/>
      <path d="m23.515 91.782 1.8153-1.637"/>
      <path d="m18.624 95.167 10.056 10.036"/>
      <path d="m16.533 89.864 12.245 12.251"/>
      <path d="m15.789 86.964 0.05762 1.2424"/>
      <path d="m18.581 83.269-2.0247 2.058"/>
      <path d="m18.898 76.247 2.3184 0.02971"/>
      <path d="m39.187 69.348l0.13165 7.3264"/>
      <path d="m39.399 67.576l3.2102-2.6247v-5.6694"/>
      <path d="m45.914 59.539v5.7877l-3.0646 2.393"/>
      <path d="m42.412 69.47v3.3679"/>
      <path d="m51.825 69.485l0.06578 4.0139"/>
     </g>
     <path transform="scale(1,-1)" d="m39.192-69.464a1.0485 0.97316 0 0 1 1.0485 0.97188 1.0485 0.97316 0 0 1 -1.0458 0.97445 1.0485 0.97316 0 0 1 -1.0513 -0.9693 1.0485 0.97316 0 0 1 1.043 -0.97701" stroke-width=".7"/>
     <g>
      <g stroke-width=".7">
       <path d="m25.331 90.145l1.1985-1.0556"/>
       <path d="m20.74 76.277l4.9708-0.0038"/>
       <path d="m56.772 85.444l-1.2133-1.8121"/>
       <path d="m57.447 83.409l-1.574-2.3572"/>
      </g>
      <path d="m25.423 73.546c2.7681 3.3075 2.864 3.3075 2.864 3.3075" stroke-width=".71606"/>
      <g stroke-width=".7">
       <path d="m42.412 72.371c0.09396 4.3211 0.04719 4.3211 0.04719 4.3211"/>
       <path d="m51.891 73.499c0.01635 2.1114-0.03042 2.1114-0.03042 2.1114"/>
       <path d="m55.096 74.899c-1.3373 1.7889-1.4822 1.9479-1.4822 1.9479"/>
       <path d="m33.243 97.02c2.5276-0.03492 2.6211-0.12847 2.6211-0.12847"/>
       <path d="m36.083 99.686l-0.03109-1.5316"/>
      </g>
     </g>
    </g>
   </g>
   <g transform="rotate(43.167 -10.097 32.577)" fill="#fff" stroke="#fff">
    <path transform="matrix(.70099 -.71317 -.71249 -.70168 0 0)" d="m11.022-76.242a9.903 9.4 0 0 1 9.903 9.3945 9.903 9.4 0 0 1 -9.8914 9.4054 9.903 9.4 0 0 1 -9.9146 -9.3835 9.903 9.4 0 0 1 9.8798 -9.4164l0.02316 9.3999z" stroke-width=".69312"/>
    <rect x="56.129" y="29.439" width="19.181" height="19.181" stroke-width=".81854"/>
    <path transform="matrix(.70099 -.71317 -.71249 -.70168 0 0)" d="m25.113-76.88a9.903 9.4 0 0 1 9.903 9.3945 9.903 9.4 0 0 1 -9.8914 9.4054 9.903 9.4 0 0 1 -9.9146 -9.3835 9.903 9.4 0 0 1 9.8798 -9.4164l0.02316 9.3999z" stroke-width=".69312"/>
   </g>
  </g>
 </g>
</svg>
