<?xml version="1.0" standalone="no"?>
<!DOCTYPE svg PUBLIC "-//W3C//DTD SVG 20010904//EN"
 "http://www.w3.org/TR/2001/REC-SVG-20010904/DTD/svg10.dtd">
<svg version="1.0" xmlns="http://www.w3.org/2000/svg"
 width="700.000000pt" height="700.000000pt" viewBox="0 0 700.000000 700.000000"
 preserveAspectRatio="xMidYMid meet">
<metadata>
Created by potrace 1.14, written by Peter Selinger 2001-2017
</metadata>
<g transform="translate(0.000000,700.000000) scale(0.100000,-0.100000)"
fill="#000000" stroke="none">
<path d="M3418 6775 c-2 -2 -57 -5 -123 -9 -66 -3 -138 -8 -160 -11 -22 -3
-60 -7 -85 -10 -361 -45 -726 -155 -1065 -321 -148 -72 -204 -103 -277 -150
-21 -13 -40 -24 -42 -24 -9 0 -240 -162 -301 -211 -232 -188 -464 -427 -610
-629 -22 -30 -42 -57 -45 -60 -10 -8 -144 -220 -180 -285 -176 -316 -322 -725
-365 -1025 -2 -14 -6 -41 -9 -60 -8 -48 -15 -103 -24 -185 -9 -86 -8 -520 1
-595 4 -30 10 -77 13 -105 3 -27 16 -109 29 -180 137 -728 526 -1388 1110
-1879 122 -103 287 -226 303 -226 6 0 12 -4 14 -8 10 -26 365 -220 528 -289
128 -54 353 -133 455 -159 91 -24 328 -74 368 -79 28 -3 63 -8 77 -10 108 -20
253 -29 470 -29 261 0 397 12 640 55 541 95 1086 344 1525 696 131 105 374
342 465 454 36 44 75 92 88 107 12 15 63 88 113 162 49 74 94 141 100 148 20
25 195 378 227 457 61 152 141 419 167 560 21 109 46 284 52 365 13 172 7 537
-11 637 -2 10 -7 44 -11 77 -8 66 -9 71 -36 206 -69 341 -229 736 -422 1039
-55 87 -183 268 -197 281 -3 3 -34 40 -69 83 -119 146 -323 345 -496 481 -381
299 -822 512 -1306 631 -75 18 -154 36 -175 39 -21 4 -64 11 -94 16 -50 9 -79
13 -180 25 -88 10 -455 26 -462 20z"/>
</g>
</svg>
